<?xml version="1.0" encoding="utf-8"?>
<!-- Generator: Adobe Illustrator 20.0.0, SVG Export Plug-In . SVG Version: 6.00 Build 0)  -->
<!DOCTYPE svg PUBLIC "-//W3C//DTD SVG 1.1//EN" "http://www.w3.org/Graphics/SVG/1.1/DTD/svg11.dtd">
<svg version="1.1" id="Layer_1" xmlns="http://www.w3.org/2000/svg" xmlns:xlink="http://www.w3.org/1999/xlink" x="0px" y="0px"
	 viewBox="0 0 56.7 56.7" style="enable-background:new 0 0 56.7 56.7;" xml:space="preserve">
<style type="text/css">
	.st0{fill:#FFFFFF;}
</style>
<circle cx="28.3" cy="28.4" r="24.6"/>
<path class="st0" d="M38.3,40c-0.4,0-0.7-0.1-1-0.4c-3.6-2.2-8-3.3-12.7-3.3c-2.6,0-5.3,0.3-7.8,0.9c-0.4,0.1-0.9,0.2-1.2,0.2
	c-0.9,0-1.6-0.7-1.6-1.5c0-1,0.6-1.5,1.3-1.7c3-0.7,6.1-1.1,9.2-1.1c5.4,0,10.2,1.2,14.3,3.7c0.6,0.4,1,0.7,1,1.6
	C39.9,39.4,39.1,40,38.3,40z"/>
<path class="st0" d="M41,33.5c-0.5,0-0.9-0.2-1.2-0.4c-4-2.4-9.6-4-15.6-4c-3.1,0-5.8,0.4-8,1c-0.5,0.1-0.7,0.3-1.2,0.3
	c-1.1,0-1.9-0.9-1.9-1.9c0-1,0.5-1.8,1.5-2.1c2.8-0.8,5.6-1.3,9.7-1.3c6.4,0,12.7,1.6,17.6,4.5c0.8,0.5,1.1,1.1,1.1,1.9
	C42.9,32.7,42.1,33.5,41,33.5z"/>
<path class="st0" d="M44.1,25.9c-0.5,0-0.8-0.1-1.3-0.4c-4.5-2.7-11.4-4.1-18.1-4.1c-3.3,0-6.7,0.3-9.8,1.2
	c-0.4,0.1-0.8,0.3-1.3,0.3c-1.3,0-2.3-1-2.3-2.4c0-1.3,0.8-2.1,1.7-2.4c3.5-1,7.4-1.5,11.7-1.5c7.2,0,14.8,1.5,20.4,4.7
	c0.7,0.4,1.3,1.1,1.3,2.2C46.4,25,45.3,25.9,44.1,25.9z"/>
</svg>
